<svg width="69" height="59" viewBox="0 0 69 59" fill="none" xmlns="http://www.w3.org/2000/svg">
<g clip-path="url(#clip0_1_8)">
<path fill-rule="evenodd" clip-rule="evenodd" d="M43 50.5714C45.2324 50.5714 47.4431 50.1353 49.5056 49.2883C51.5682 48.441 53.4422 47.1995 55.0209 45.6342C56.5995 44.0688 57.8515 42.2105 58.706 40.1652C59.5602 38.1201 60 35.928 60 33.7143C60 27.0082 57.3133 20.5765 52.5312 15.8346C47.7491 11.0926 41.2629 8.42859 34.5 8.42859C27.7371 8.42859 21.2509 11.0926 16.4688 15.8346C11.6866 20.5765 9 27.0082 9 33.7143C9 35.928 9.43972 38.1201 10.294 40.1652C11.1484 42.2105 12.4006 44.0688 13.9792 45.6342C15.5578 47.1995 17.4318 48.441 19.4944 49.2883C21.5569 50.1353 23.7676 50.5714 26 50.5714H43ZM34.5 15.1714C29.5404 15.1714 24.784 17.125 21.2771 20.6025C17.7701 24.0799 15.8 28.7964 15.8 33.7143C15.8 35.0425 16.0638 36.3577 16.5764 37.5849C17.089 38.8121 17.8403 39.927 18.7876 40.8661C19.7346 41.8054 20.859 42.5503 22.0966 43.0587C23.3342 43.567 24.6606 43.8286 26 43.8286H43C44.3394 43.8286 45.6658 43.567 46.9034 43.0587C48.141 42.5503 49.2654 41.8054 50.2124 40.8661C51.1597 39.927 51.9109 38.8121 52.4236 37.5849C52.9362 36.3577 53.2 35.0425 53.2 33.7143C53.2 28.7964 51.2299 24.0799 47.7229 20.6025C44.216 17.125 39.4596 15.1714 34.5 15.1714Z" fill="#EB1700"/>
<path fill-rule="evenodd" clip-rule="evenodd" d="M22.6 59C19.6978 59 16.824 58.3459 14.1427 57.0752C11.4615 55.8046 9.02516 53.942 6.97294 51.594C4.9208 49.2459 3.29291 46.4586 2.18226 43.3908C1.07164 40.323 0.5 37.0348 0.5 33.7143C0.5 24.7728 4.08214 16.1973 10.4584 9.87468C16.8346 3.55204 25.4827 0 34.5 0C43.5173 0 52.1654 3.55204 58.5416 9.87468C64.9179 16.1973 68.5 24.7728 68.5 33.7143C68.5 37.0348 67.9283 40.323 66.8177 43.3908C65.7071 46.4586 64.0792 49.2459 62.0271 51.594C59.9748 53.942 57.5386 55.8046 54.8573 57.0752C52.1759 58.3459 49.3022 59 46.4 59H22.6ZM15.2667 14.6426C20.3677 9.58448 27.2861 6.74286 34.5 6.74286C41.714 6.74286 48.6323 9.58448 53.7333 14.6426C58.8343 19.7008 61.7 26.561 61.7 33.7143C61.7 36.273 61.2587 38.7895 60.4177 41.1125C59.5767 43.4355 58.3639 45.4897 56.8883 47.1779C55.4144 48.8643 53.7177 50.1419 51.925 50.9915C50.1368 51.8391 48.2627 52.2571 46.4 52.2571H22.6C20.7373 52.2571 18.8632 51.8391 17.075 50.9915C15.2823 50.1419 13.5856 48.8643 12.1116 47.1779C10.6361 45.4897 9.42335 43.4355 8.58236 41.1125C7.74134 38.7895 7.3 36.273 7.3 33.7143C7.3 26.561 10.1657 19.7008 15.2667 14.6426Z" fill="#EB1700"/>
<path d="M43 42.1428H34.4925C33.9213 42.1423 33.3544 42.0847 32.8 41.9726C31.7256 41.7551 30.6983 41.3323 29.7777 40.7223C28.3798 39.7962 27.2903 38.4799 26.647 36.9397C26.4384 36.4402 26.2796 35.9246 26.1717 35.4C25.9466 34.3068 25.9417 33.1747 26.1634 32.0698C26.4913 30.4349 27.3008 28.9331 28.4897 27.7544C29.6783 26.5756 31.1928 25.7729 32.8417 25.4477C32.8933 25.4374 32.9448 25.4278 32.9965 25.4185C33.4948 25.3299 33.998 25.2857 34.5 25.2857C35.611 25.2857 36.7165 25.5016 37.7528 25.9273C39.3059 26.5651 40.6334 27.6455 41.5674 29.0315C42.5016 30.4177 43 32.0473 43 33.7143H36.2C36.2 33.3808 36.1004 33.055 35.9135 32.7777C35.7267 32.5005 35.4612 32.2844 35.1506 32.1568C34.84 32.0292 34.4981 31.9958 34.1683 32.0609C33.8385 32.126 33.5356 32.2865 33.2979 32.5223C33.0601 32.758 32.8983 33.0583 32.8326 33.3854C32.767 33.7124 32.8007 34.0514 32.9294 34.3594C33.0581 34.6674 33.276 34.9307 33.5555 35.1159C33.8351 35.3012 34.1637 35.4 34.5 35.4H43C43.2232 35.4 43.4444 35.3563 43.6506 35.2717C43.8568 35.1869 44.0441 35.0628 44.2021 34.9062C44.36 34.7496 44.4851 34.5639 44.5706 34.3594C44.656 34.1549 44.7 33.9356 44.7 33.7143C44.7 31.0318 43.6254 28.4592 41.7124 26.5624C39.7996 24.6655 37.2052 23.6 34.5 23.6C34.2066 23.6 33.9145 23.6124 33.6245 23.6372C32.9117 23.6981 32.2109 23.8329 31.5335 24.0372C30.8669 24.238 30.2228 24.5062 29.6113 24.8373C28.9109 25.2166 28.2533 25.6785 27.6541 26.2165C27.5293 26.3285 27.4071 26.4438 27.2876 26.5624C26.4507 27.3922 25.7742 28.3515 25.278 29.3926C25.03 29.9131 24.8268 30.4541 24.6715 31.0097C24.4936 31.6449 24.378 32.2989 24.3282 32.9631C24.3095 33.2123 24.3 33.4628 24.3 33.7143C24.3 35.036 24.5613 36.3517 25.0764 37.5848C25.8485 39.433 27.1558 41.0126 28.8332 42.124C28.8427 42.1304 28.8523 42.1366 28.8618 42.1428H26C24.8838 42.1428 23.7784 41.9249 22.7472 41.5012C21.716 41.0776 20.779 40.4568 19.9897 39.6741C19.2003 38.8914 18.5742 37.9623 18.147 36.9397C17.7198 35.9172 17.5 34.8211 17.5 33.7143C17.5 29.2434 19.2911 24.9558 22.4791 21.7944C25.6673 18.6332 29.9913 16.8571 34.5 16.8571C39.0087 16.8571 43.3327 18.6332 46.5209 21.7944C49.7089 24.9558 51.5 29.2434 51.5 33.7143C51.5 34.8211 51.2802 35.9172 50.853 36.9397C50.4258 37.9623 49.7997 38.8914 49.0103 39.6741C48.221 40.4568 47.284 41.0776 46.2528 41.5012C45.2216 41.9249 44.1162 42.1428 43 42.1428Z" fill="#EB1700"/>
</g>
<defs>
<clipPath id="clip0_1_8">
<rect width="68" height="59" fill="white" transform="translate(0.5)"/>
</clipPath>
</defs>
</svg>
