<svg width="51" height="44" viewBox="0 0 51 44" fill="none" xmlns="http://www.w3.org/2000/svg">
<g clip-path="url(#clip0_1_14)">
<path fill-rule="evenodd" clip-rule="evenodd" d="M31.875 37.7143C33.5493 37.7143 35.2073 37.3891 36.7542 36.7573C38.3011 36.1255 39.7067 35.1996 40.8906 34.0322C42.0746 32.8648 43.0137 31.479 43.6545 29.9537C44.2952 28.4285 44.625 26.7937 44.625 25.1428C44.625 20.1417 42.61 15.3452 39.0234 11.8088C35.4368 8.27243 30.5722 6.28571 25.5 6.28571C20.4278 6.28571 15.5632 8.27243 11.9766 11.8088C8.38995 15.3452 6.375 20.1417 6.375 25.1428C6.375 26.7937 6.70479 28.4285 7.34553 29.9537C7.98628 31.479 8.92545 32.8648 10.1094 34.0322C11.2933 35.1996 12.6989 36.1255 14.2458 36.7573C15.7927 37.3891 17.4507 37.7143 19.125 37.7143H31.875ZM25.5 11.3143C21.7803 11.3143 18.213 12.7712 15.5828 15.3645C12.9526 17.9579 11.475 21.4753 11.475 25.1428C11.475 26.1334 11.6729 27.1142 12.0573 28.0294C12.4418 28.9446 13.0053 29.776 13.7157 30.4764C14.426 31.1769 15.2693 31.7324 16.1975 32.1116C17.1257 32.4906 18.1204 32.6857 19.125 32.6857H31.875C32.8796 32.6857 33.8743 32.4906 34.8025 32.1116C35.7307 31.7324 36.574 31.1769 37.2843 30.4764C37.9947 29.776 38.5582 28.9446 38.9427 28.0294C39.3271 27.1142 39.525 26.1334 39.525 25.1428C39.525 21.4753 38.0474 17.9579 35.4172 15.3645C32.787 12.7712 29.2197 11.3143 25.5 11.3143Z" fill="#EB1700"/>
<path fill-rule="evenodd" clip-rule="evenodd" d="M16.575 44C14.3983 44 12.243 43.5122 10.232 42.5646C8.2211 41.617 6.39387 40.2279 4.8547 38.4769C3.3156 36.7258 2.09468 34.6471 1.2617 32.3592C0.428728 30.0714 0 27.6192 0 25.1429C0 18.4746 2.6866 12.0794 7.46878 7.36417C12.251 2.64898 18.737 0 25.5 0C32.263 0 38.749 2.64898 43.5312 7.36417C48.3134 12.0794 51 18.4746 51 25.1429C51 27.6192 50.5712 30.0714 49.7383 32.3592C48.9053 34.6471 47.6844 36.7258 46.1453 38.4769C44.6061 40.2279 42.7789 41.617 40.768 42.5646C38.7569 43.5122 36.6017 44 34.425 44H16.575ZM11.075 10.9199C14.9008 7.14775 20.0895 5.02857 25.5 5.02857C30.9105 5.02857 36.0992 7.14775 39.925 10.9199C43.7507 14.6921 45.9 19.8082 45.9 25.1429C45.9 27.0511 45.569 28.9277 44.9383 30.6602C44.3075 32.3925 43.3979 33.9245 42.2912 35.1835C41.1858 36.4412 39.9132 37.394 38.5687 38.0276C37.2276 38.6597 35.822 38.9714 34.425 38.9714H16.575C15.178 38.9714 13.7724 38.6597 12.4312 38.0276C11.0868 37.394 9.81419 36.4412 8.70872 35.1835C7.60209 33.9245 6.69251 32.3925 6.06177 30.6602C5.431 28.9277 5.1 27.0511 5.1 25.1429C5.1 19.8082 7.24928 14.6921 11.075 10.9199Z" fill="#EB1700"/>
<path d="M31.875 31.4286H25.4944C25.066 31.4282 24.6408 31.3852 24.225 31.3016C23.4192 31.1394 22.6487 30.8242 21.9583 30.3692C20.9099 29.6785 20.0927 28.6969 19.6103 27.5483C19.4538 27.1758 19.3347 26.7912 19.2538 26.4C19.085 25.5848 19.0813 24.7405 19.2475 23.9165C19.4935 22.6972 20.1006 21.5772 20.9922 20.6982C21.8837 19.8191 23.0196 19.2205 24.2562 18.978C24.295 18.9703 24.3336 18.9631 24.3724 18.9562C24.7461 18.8901 25.1235 18.8572 25.5 18.8572C26.3332 18.8572 27.1623 19.0182 27.9396 19.3356C29.1044 19.8113 30.1001 20.617 30.8006 21.6507C31.5012 22.6844 31.875 23.8997 31.875 25.1429H26.775C26.775 24.8942 26.7003 24.6512 26.5602 24.4444C26.42 24.2377 26.2209 24.0766 25.9879 23.9814C25.755 23.8862 25.4986 23.8613 25.2512 23.9099C25.0039 23.9584 24.7767 24.0781 24.5984 24.2539C24.4201 24.4297 24.2987 24.6537 24.2495 24.8976C24.2003 25.1415 24.2255 25.3943 24.322 25.624C24.4185 25.8537 24.582 26.05 24.7916 26.1882C25.0013 26.3263 25.2478 26.4 25.5 26.4H31.875C32.0424 26.4 32.2083 26.3675 32.3629 26.3043C32.5176 26.2411 32.6581 26.1486 32.7766 26.0318C32.895 25.915 32.9888 25.7765 33.053 25.624C33.117 25.4715 33.15 25.3079 33.15 25.1429C33.15 23.1424 32.3441 21.2239 30.9093 19.8093C29.4747 18.3947 27.5289 17.6 25.5 17.6C25.2799 17.6 25.0609 17.6093 24.8434 17.6278C24.3088 17.6732 23.7832 17.7738 23.2751 17.9261C22.7752 18.0758 22.2921 18.2759 21.8335 18.5228C21.3082 18.8056 20.815 19.1501 20.3656 19.5514C20.272 19.6348 20.1803 19.7208 20.0907 19.8093C19.463 20.4281 18.9557 21.1435 18.5835 21.9199C18.3975 22.3081 18.2451 22.7116 18.1286 23.1259C17.9952 23.5996 17.9085 24.0874 17.8712 24.5827C17.8571 24.7685 17.85 24.9553 17.85 25.1429C17.85 26.1286 18.046 27.1098 18.4323 28.0294C19.0114 29.4077 19.9919 30.5857 21.2499 31.4145C21.2571 31.4193 21.2642 31.4239 21.2713 31.4286H19.125C18.2878 31.4286 17.4588 31.266 16.6854 30.9501C15.912 30.6342 15.2092 30.1712 14.6172 29.5875C14.0253 29.0038 13.5557 28.3109 13.2353 27.5483C12.9149 26.7857 12.75 25.9683 12.75 25.1429C12.75 21.8087 14.0933 18.6111 16.4843 16.2535C18.8755 13.896 22.1184 12.5714 25.5 12.5714C28.8816 12.5714 32.1245 13.896 34.5157 16.2535C36.9067 18.6111 38.25 21.8087 38.25 25.1429C38.25 25.9683 38.0851 26.7857 37.7647 27.5483C37.4443 28.3109 36.9747 29.0038 36.3828 29.5875C35.7908 30.1712 35.088 30.6342 34.3146 30.9501C33.5412 31.266 32.7122 31.4286 31.875 31.4286Z" fill="#EB1700"/>
</g>
<defs>
<clipPath id="clip0_1_14">
<rect width="51" height="44" fill="white"/>
</clipPath>
</defs>
</svg>
